<svg width="1100" height="230" viewBox="0 0 1100 230" xmlns="http://www.w3.org/2000/svg" role="img" aria-label="amuse — Apple Music, from your terminal.">
  <defs>
    <linearGradient id="grad" x1="0%" y1="0%" x2="100%" y2="0%">
      <stop offset="0%" stop-color="#FA243C"/>
      <stop offset="100%" stop-color="#FC3B6E"/>
    </linearGradient>
  </defs>
  <rect width="1100" height="230" rx="24" fill="#0d1117"/>
  <g fill="url(#grad)">
    <rect x="100" y="70" width="20" height="10"/>
    <rect x="120" y="60" width="20" height="20"/>
    <rect x="140" y="60" width="20" height="20"/>
    <rect x="160" y="60" width="20" height="20"/>
    <rect x="180" y="60" width="20" height="20"/>
    <rect x="200" y="60" width="20" height="20"/>
    <rect x="220" y="70" width="20" height="10"/>
    <rect x="280" y="60" width="20" height="20"/>
    <rect x="300" y="60" width="20" height="20"/>
    <rect x="320" y="60" width="20" height="20"/>
    <rect x="340" y="60" width="20" height="20"/>
    <rect x="360" y="70" width="20" height="10"/>
    <rect x="380" y="60" width="20" height="20"/>
    <rect x="400" y="60" width="20" height="20"/>
    <rect x="420" y="70" width="20" height="10"/>
    <rect x="480" y="60" width="20" height="20"/>
    <rect x="500" y="60" width="20" height="20"/>
    <rect x="600" y="60" width="20" height="20"/>
    <rect x="620" y="60" width="20" height="20"/>
    <rect x="680" y="70" width="20" height="10"/>
    <rect x="700" y="70" width="20" height="10"/>
    <rect x="720" y="60" width="20" height="20"/>
    <rect x="740" y="60" width="20" height="20"/>
    <rect x="760" y="60" width="20" height="20"/>
    <rect x="780" y="60" width="20" height="20"/>
    <rect x="800" y="60" width="20" height="20"/>
    <rect x="820" y="70" width="20" height="10"/>
    <rect x="900" y="70" width="20" height="10"/>
    <rect x="920" y="60" width="20" height="20"/>
    <rect x="940" y="60" width="20" height="20"/>
    <rect x="960" y="60" width="20" height="20"/>
    <rect x="980" y="60" width="20" height="20"/>
    <rect x="1000" y="70" width="20" height="10"/>
    <rect x="100" y="80" width="20" height="10"/>
    <rect x="140" y="90" width="20" height="10"/>
    <rect x="160" y="90" width="20" height="10"/>
    <rect x="180" y="90" width="20" height="10"/>
    <rect x="200" y="80" width="20" height="20"/>
    <rect x="220" y="80" width="20" height="20"/>
    <rect x="280" y="80" width="20" height="20"/>
    <rect x="300" y="80" width="20" height="20"/>
    <rect x="340" y="80" width="20" height="20"/>
    <rect x="360" y="80" width="20" height="20"/>
    <rect x="400" y="80" width="20" height="20"/>
    <rect x="420" y="80" width="20" height="20"/>
    <rect x="480" y="80" width="20" height="20"/>
    <rect x="500" y="80" width="20" height="20"/>
    <rect x="600" y="80" width="20" height="20"/>
    <rect x="620" y="80" width="20" height="20"/>
    <rect x="680" y="80" width="20" height="20"/>
    <rect x="700" y="80" width="20" height="20"/>
    <rect x="720" y="90" width="20" height="10"/>
    <rect x="740" y="90" width="20" height="10"/>
    <rect x="760" y="90" width="20" height="10"/>
    <rect x="780" y="90" width="20" height="10"/>
    <rect x="820" y="80" width="20" height="10"/>
    <rect x="880" y="80" width="20" height="20"/>
    <rect x="900" y="80" width="20" height="20"/>
    <rect x="920" y="90" width="20" height="10"/>
    <rect x="940" y="90" width="20" height="10"/>
    <rect x="960" y="90" width="20" height="10"/>
    <rect x="980" y="90" width="20" height="10"/>
    <rect x="1000" y="80" width="20" height="20"/>
    <rect x="1020" y="80" width="20" height="20"/>
    <rect x="80" y="110" width="20" height="10"/>
    <rect x="100" y="100" width="20" height="20"/>
    <rect x="120" y="100" width="20" height="20"/>
    <rect x="140" y="100" width="20" height="10"/>
    <rect x="160" y="100" width="20" height="10"/>
    <rect x="180" y="100" width="20" height="10"/>
    <rect x="200" y="100" width="20" height="20"/>
    <rect x="220" y="100" width="20" height="20"/>
    <rect x="280" y="100" width="20" height="20"/>
    <rect x="300" y="100" width="20" height="20"/>
    <rect x="340" y="100" width="20" height="20"/>
    <rect x="360" y="100" width="20" height="20"/>
    <rect x="400" y="100" width="20" height="20"/>
    <rect x="420" y="100" width="20" height="20"/>
    <rect x="480" y="100" width="20" height="20"/>
    <rect x="500" y="100" width="20" height="20"/>
    <rect x="600" y="100" width="20" height="20"/>
    <rect x="620" y="100" width="20" height="20"/>
    <rect x="700" y="100" width="20" height="10"/>
    <rect x="720" y="100" width="20" height="10"/>
    <rect x="740" y="100" width="20" height="10"/>
    <rect x="760" y="100" width="20" height="10"/>
    <rect x="780" y="100" width="20" height="20"/>
    <rect x="800" y="100" width="20" height="20"/>
    <rect x="820" y="110" width="20" height="10"/>
    <rect x="880" y="100" width="20" height="20"/>
    <rect x="900" y="100" width="20" height="20"/>
    <rect x="920" y="100" width="20" height="10"/>
    <rect x="940" y="100" width="20" height="10"/>
    <rect x="960" y="100" width="20" height="10"/>
    <rect x="980" y="100" width="20" height="10"/>
    <rect x="1000" y="100" width="20" height="10"/>
    <rect x="1020" y="100" width="20" height="10"/>
    <rect x="80" y="120" width="20" height="20"/>
    <rect x="100" y="120" width="20" height="20"/>
    <rect x="120" y="130" width="20" height="10"/>
    <rect x="140" y="130" width="20" height="10"/>
    <rect x="160" y="130" width="20" height="10"/>
    <rect x="180" y="120" width="20" height="20"/>
    <rect x="200" y="120" width="20" height="20"/>
    <rect x="220" y="120" width="20" height="20"/>
    <rect x="280" y="120" width="20" height="20"/>
    <rect x="300" y="120" width="20" height="20"/>
    <rect x="340" y="120" width="20" height="20"/>
    <rect x="360" y="120" width="20" height="20"/>
    <rect x="400" y="120" width="20" height="20"/>
    <rect x="420" y="120" width="20" height="20"/>
    <rect x="480" y="120" width="20" height="20"/>
    <rect x="500" y="120" width="20" height="20"/>
    <rect x="520" y="130" width="20" height="10"/>
    <rect x="540" y="130" width="20" height="10"/>
    <rect x="560" y="130" width="20" height="10"/>
    <rect x="580" y="120" width="20" height="20"/>
    <rect x="600" y="120" width="20" height="20"/>
    <rect x="620" y="120" width="20" height="20"/>
    <rect x="680" y="120" width="20" height="20"/>
    <rect x="700" y="130" width="20" height="10"/>
    <rect x="720" y="130" width="20" height="10"/>
    <rect x="740" y="130" width="20" height="10"/>
    <rect x="760" y="130" width="20" height="10"/>
    <rect x="780" y="130" width="20" height="10"/>
    <rect x="800" y="120" width="20" height="20"/>
    <rect x="820" y="120" width="20" height="20"/>
    <rect x="880" y="120" width="20" height="10"/>
    <rect x="900" y="120" width="20" height="20"/>
    <rect x="920" y="120" width="20" height="20"/>
    <rect x="940" y="130" width="20" height="10"/>
    <rect x="960" y="130" width="20" height="10"/>
    <rect x="980" y="130" width="20" height="10"/>
    <rect x="1000" y="130" width="20" height="10"/>
    <rect x="1020" y="120" width="20" height="20"/>
    <rect x="100" y="140" width="20" height="10"/>
    <rect x="120" y="140" width="20" height="10"/>
    <rect x="140" y="140" width="20" height="10"/>
    <rect x="160" y="140" width="20" height="10"/>
    <rect x="200" y="140" width="20" height="10"/>
    <rect x="220" y="140" width="20" height="10"/>
    <rect x="280" y="140" width="20" height="10"/>
    <rect x="300" y="140" width="20" height="10"/>
    <rect x="340" y="140" width="20" height="10"/>
    <rect x="360" y="140" width="20" height="10"/>
    <rect x="400" y="140" width="20" height="10"/>
    <rect x="420" y="140" width="20" height="10"/>
    <rect x="500" y="140" width="20" height="10"/>
    <rect x="520" y="140" width="20" height="10"/>
    <rect x="540" y="140" width="20" height="10"/>
    <rect x="560" y="140" width="20" height="10"/>
    <rect x="600" y="140" width="20" height="10"/>
    <rect x="620" y="140" width="20" height="10"/>
    <rect x="700" y="140" width="20" height="10"/>
    <rect x="720" y="140" width="20" height="10"/>
    <rect x="740" y="140" width="20" height="10"/>
    <rect x="760" y="140" width="20" height="10"/>
    <rect x="780" y="140" width="20" height="10"/>
    <rect x="800" y="140" width="20" height="10"/>
    <rect x="920" y="140" width="20" height="10"/>
    <rect x="940" y="140" width="20" height="10"/>
    <rect x="960" y="140" width="20" height="10"/>
    <rect x="980" y="140" width="20" height="10"/>
    <rect x="1000" y="140" width="20" height="10"/>
  </g>
  <text x="60" y="205" font-family="monospace" font-size="24" fill="#8b949e">♪ Apple Music, from your terminal.</text>
</svg>
